<?xml version="1.0" encoding="UTF-8" standalone="no"?>
<!-- Created with Inkscape (http://www.inkscape.org/) -->

<svg
   xmlns:dc="http://purl.org/dc/elements/1.1/"
   xmlns:cc="http://creativecommons.org/ns#"
   xmlns:rdf="http://www.w3.org/1999/02/22-rdf-syntax-ns#"
   xmlns:svg="http://www.w3.org/2000/svg"
   xmlns="http://www.w3.org/2000/svg"
   xmlns:sodipodi="http://sodipodi.sourceforge.net/DTD/sodipodi-0.dtd"
   xmlns:inkscape="http://www.inkscape.org/namespaces/inkscape"
   id="svg2"
   version="1.1"
   inkscape:version="0.48.4 r9939"
   width="232.975"
   height="62.7"
   xml:space="preserve"
   sodipodi:docname="node-black.svg"><metadata
     id="metadata8"><rdf:RDF><cc:Work
         rdf:about=""><dc:format>image/svg+xml</dc:format><dc:type
           rdf:resource="http://purl.org/dc/dcmitype/StillImage" /><dc:title></dc:title></cc:Work></rdf:RDF></metadata><defs
     id="defs6" /><sodipodi:namedview
     pagecolor="#ffffff"
     bordercolor="#666666"
     borderopacity="1"
     objecttolerance="10"
     gridtolerance="10"
     guidetolerance="10"
     inkscape:pageopacity="0"
     inkscape:pageshadow="2"
     inkscape:window-width="640"
     inkscape:window-height="480"
     id="namedview4"
     showgrid="false"
     inkscape:zoom="1.781307"
     inkscape:cx="116.4875"
     inkscape:cy="53.805423"
     inkscape:window-x="0"
     inkscape:window-y="0"
     inkscape:window-maximized="0"
     inkscape:current-layer="g10" /><g
     id="g10"
     inkscape:groupmode="layer"
     inkscape:label="ink_ext_XXXXXX"
     transform="matrix(1.25,0,0,-1.25,0,62.7)"><g
       id="g12"
       transform="scale(0.1,0.1)"
       style="fill:#ffffff"><path
         d="m 279.48,235.031 c 0,5.418 -2.847,10.399 -7.527,13.086 l -124.687,71.754 c -2.11,1.242 -4.473,1.887 -6.868,1.984 -0.21,0 -1.113,0 -1.289,0 -2.379,-0.097 -4.746,-0.742 -6.882,-1.984 L 7.53906,248.117 C 2.89063,245.43 0,240.449 0,235.031 L 0.273438,41.8086 c 0,-2.6875 1.394532,-5.1875 3.757812,-6.5039 2.31641,-1.3906 5.17578,-1.3906 7.48435,0 l 74.0977,42.4297 c 4.6875,2.7851 7.543,7.6953 7.543,13.0664 l 0,90.2732 c 0,5.379 2.8515,10.364 7.5197,13.039 l 31.551,18.172 c 2.351,1.36 4.921,2.024 7.546,2.024 2.571,0 5.207,-0.664 7.493,-2.024 l 31.543,-18.172 c 4.668,-2.675 7.531,-7.66 7.531,-13.039 l 0,-90.2732 c 0,-5.3711 2.89,-10.3125 7.547,-13.0664 l 74.082,-42.4297 c 2.324,-1.3906 5.222,-1.3906 7.527,0 2.297,1.3164 3.742,3.8164 3.742,6.5039 l 0.242,193.2224"
         style="fill:#ffffff;fill-opacity:1;fill-rule:evenodd;stroke:none"
         id="path14" /><path
         d="m 933.711,134.418 c 0,-1.344 -0.719,-2.586 -1.887,-3.258 L 889,106.477 c -1.164,-0.672 -2.598,-0.672 -3.762,0 L 842.41,131.16 c -1.164,0.672 -1.883,1.914 -1.883,3.258 l 0,49.453 c 0,1.344 0.719,2.59 1.879,3.262 l 42.828,24.738 c 1.168,0.672 2.602,0.672 3.77,0 l 42.828,-24.738 c 1.16,-0.672 1.879,-1.918 1.879,-3.262 l 0,-49.453 z m 11.57,366.227 c -2.332,1.3 -5.179,1.269 -7.484,-0.082 -2.301,-1.352 -3.715,-3.825 -3.715,-6.497 l 0,-191.351 c 0,-1.879 -1.008,-3.621 -2.633,-4.567 -1.629,-0.941 -3.64,-0.941 -5.273,0 l -31.231,17.997 c -4.656,2.683 -10.39,2.679 -15.047,-0.008 L 755.16,244.152 c -4.664,-2.691 -7.531,-7.664 -7.531,-13.043 l 0,-144.0035 c 0,-5.3828 2.867,-10.3516 7.527,-13.0469 L 879.887,2.01563 c 4.664,-2.691411 10.406,-2.691411 15.07,0 L 1019.71,74.0586 c 4.66,2.6953 7.53,7.6641 7.53,13.0469 l 0,358.9645 c 0,5.457 -2.96,10.493 -7.73,13.153 l -74.229,41.422"
         style="fill:#ffffff;fill-opacity:1;fill-rule:evenodd;stroke:none"
         id="path16" /><path
         d="m 1391.55,185.164 c 4.64,2.699 7.49,7.66 7.49,13.024 l 0,34.898 c 0,5.367 -2.85,10.332 -7.5,13.027 l -123.93,71.957 c -4.67,2.711 -10.42,2.715 -15.1,0.02 l -124.69,-71.985 c -4.66,-2.691 -7.53,-7.664 -7.53,-13.042 l 0,-143.9653 c 0,-5.4141 2.91,-10.4102 7.61,-13.0899 L 1251.82,5.40234 c 4.57,-2.60937 10.17,-2.63671 14.77,-0.08593 l 74.95,41.66019 c 2.38,1.3242 3.86,3.8203 3.87,6.5351 0.02,2.7149 -1.43,5.2305 -3.78,6.5821 l -125.48,72.0192 c -2.35,1.344 -3.79,3.84 -3.79,6.535 l 0,45.118 c 0,2.687 1.44,5.179 3.77,6.523 l 39.06,22.516 c 2.32,1.34 5.19,1.34 7.52,0 l 39.07,-22.516 c 2.33,-1.344 3.77,-3.836 3.77,-6.523 l 0,-35.504 c 0,-2.692 1.44,-5.18 3.77,-6.524 2.34,-1.347 5.21,-1.336 7.54,0.016 l 74.69,43.41"
         style="fill:#ffffff;fill-opacity:1;fill-rule:evenodd;stroke:none"
         id="path18" /><path
         d="m 506.301,318.848 c 4.656,2.691 10.398,2.691 15.054,0 l 124.723,-71.973 c 4.664,-2.691 7.535,-7.66 7.535,-13.047 l 0,-144.0585 c 0,-5.3789 -2.871,-10.3515 -7.527,-13.0468 L 521.363,4.69141 c -4.664,-2.6875 -10.406,-2.6875 -15.07,0 L 381.602,76.7227 c -4.661,2.6914 -7.532,7.6679 -7.532,13.0468 l 0,144.0625 c 0,5.383 2.871,10.352 7.535,13.043 l 124.696,71.973"
         style="fill:#ffffff;fill-opacity:1;fill-rule:evenodd;stroke:none"
         id="path20" /><path
         d="m 1633.71,2.63672 c -4.3,0 -8.57,1.125 -12.33,3.30078 l -39.27,23.2344 c -5.86,3.2773 -3,4.4414 -1.07,5.1133 7.83,2.7187 9.41,3.3437 17.76,8.0781 0.87,0.4883 2.02,0.3008 2.92,-0.2227 l 30.16,-17.9101 c 1.1,-0.6094 2.64,-0.6094 3.65,0 l 117.6,67.8789 c 1.1,0.625 1.8,1.8828 1.8,3.1836 l 0,135.723 c 0,1.328 -0.7,2.57 -1.82,3.242 l -117.56,67.82 c -1.09,0.637 -2.53,0.637 -3.63,0 l -117.53,-67.84 c -1.14,-0.652 -1.86,-1.933 -1.86,-3.222 l 0,-135.723 c 0,-1.3008 0.72,-2.5274 1.85,-3.1446 l 32.22,-18.6132 c 17.48,-8.7383 28.19,1.5546 28.19,11.8945 l 0,134.0043 c 0,1.894 1.52,3.39 3.41,3.39 l 14.92,0 c 1.86,0 3.4,-1.496 3.4,-3.39 l 0,-134.0043 c 0,-23.3281 -12.7,-36.707 -34.82,-36.707 -6.8,0 -12.15,0 -27.09,7.3632 l -30.84,17.7539 c -7.62,4.4024 -12.33,12.6368 -12.33,21.4532 l 0,135.723 c 0,8.82 4.71,17.05 12.33,21.433 l 117.61,67.961 c 7.44,4.207 17.33,4.207 24.71,0 l 117.6,-67.961 c 7.62,-4.402 12.35,-12.613 12.35,-21.433 l 0,-135.723 c 0,-8.8164 -4.73,-17.0196 -12.35,-21.4532 L 1646.09,5.9375 c -3.76,-2.17578 -8.02,-3.30078 -12.38,-3.30078"
         style="fill:#ffffff;fill-opacity:1;fill-rule:nonzero;stroke:none"
         id="path22" /><path
         d="m 1670.04,96.1445 c -51.47,0 -62.25,23.6215 -62.25,43.4335 0,1.887 1.52,3.391 3.4,3.391 l 15.21,0 c 1.7,0 3.11,-1.223 3.38,-2.879 2.29,-15.481 9.14,-23.293 40.26,-23.293 24.77,0 35.32,5.605 35.32,18.75 0,7.578 -2.99,13.203 -41.49,16.973 -32.18,3.183 -52.08,10.293 -52.08,36.035 0,23.73 20,37.883 53.53,37.883 37.68,0 56.32,-13.079 58.68,-41.133 0.09,-0.969 -0.25,-1.895 -0.89,-2.617 -0.65,-0.676 -1.55,-1.086 -2.49,-1.086 l -15.27,0 c -1.58,0 -2.98,1.125 -3.3,2.656 -3.66,16.289 -12.57,21.496 -36.73,21.496 -27.05,0 -30.19,-9.426 -30.19,-16.484 0,-8.555 3.71,-11.047 40.23,-15.879 36.14,-4.778 53.31,-11.543 53.31,-36.946 0,-25.625 -21.37,-40.3005 -58.63,-40.3005"
         style="fill:#ffffff;fill-opacity:1;fill-rule:nonzero;stroke:none"
         id="path24" /><path
         d="m 1832.21,320.098 0,-3.485 -9.9,0 0,-25.793 -3.99,0 0,25.793 -9.86,0 0,3.485 23.75,0"
         style="fill:#ffffff;fill-opacity:1;fill-rule:nonzero;stroke:none"
         id="path26" /><path
         d="m 1835.74,320.098 5.69,0 8.4,-24.746 8.37,24.746 5.65,0 0,-29.278 -3.79,0 0,17.278 c 0,0.601 0.01,1.59 0.03,2.957 0.04,1.406 0.06,2.89 0.06,4.465 l -8.37,-24.7 -3.93,0 -8.44,24.7 0,-0.879 c 0,-0.727 0,-1.817 0.05,-3.301 0.03,-1.457 0.07,-2.539 0.07,-3.242 l 0,-17.278 -3.79,0 0,29.278"
         style="fill:#ffffff;fill-opacity:1;fill-rule:nonzero;stroke:none"
         id="path28" /><path
         d="m 1258.22,191.91 c 0.9,0.516 2,0.516 2.89,0 l 23.94,-13.808 c 0.89,-0.52 1.44,-1.469 1.44,-2.504 l 0,-27.637 c 0,-1.035 -0.55,-1.988 -1.44,-2.508 l -23.94,-13.808 c -0.89,-0.516 -1.99,-0.516 -2.89,0 l -23.91,13.808 c -0.9,0.52 -1.45,1.473 -1.45,2.508 l 0,27.637 c 0,1.035 0.55,1.984 1.45,2.504 l 23.91,13.808"
         style="fill:#ffffff;fill-opacity:1;fill-rule:evenodd;stroke:none"
         id="path30" /></g></g></svg>