<?xml version="1.0" encoding="UTF-8" standalone="no"?>
<!-- Created with Inkscape (http://www.inkscape.org/) -->

<svg
   xmlns:dc="http://purl.org/dc/elements/1.1/"
   xmlns:cc="http://creativecommons.org/ns#"
   xmlns:rdf="http://www.w3.org/1999/02/22-rdf-syntax-ns#"
   xmlns:svg="http://www.w3.org/2000/svg"
   xmlns="http://www.w3.org/2000/svg"
   xmlns:sodipodi="http://sodipodi.sourceforge.net/DTD/sodipodi-0.dtd"
   xmlns:inkscape="http://www.inkscape.org/namespaces/inkscape"
   width="210mm"
   height="297mm"
   id="svg2"
   version="1.1"
   inkscape:version="0.48.4 r9939"
   sodipodi:docname="Novo documento 1">
  <defs
     id="defs4" />
  <sodipodi:namedview
     id="base"
     pagecolor="#ffffff"
     bordercolor="#666666"
     borderopacity="1.0"
     inkscape:pageopacity="0.0"
     inkscape:pageshadow="2"
     inkscape:zoom="1.979899"
     inkscape:cx="394.99963"
     inkscape:cy="490.81084"
     inkscape:document-units="px"
     inkscape:current-layer="layer1"
     showgrid="false"
     inkscape:window-width="681"
     inkscape:window-height="712"
     inkscape:window-x="11"
     inkscape:window-y="27"
     inkscape:window-maximized="0" />
  <metadata
     id="metadata7">
    <rdf:RDF>
      <cc:Work
         rdf:about="">
        <dc:format>image/svg+xml</dc:format>
        <dc:type
           rdf:resource="http://purl.org/dc/dcmitype/StillImage" />
        <dc:title></dc:title>
      </cc:Work>
    </rdf:RDF>
  </metadata>
  <g
     inkscape:label="Camada 1"
     inkscape:groupmode="layer"
     id="layer1">
    <path
       style="fill:#df0001"
       d="m 370.03125,504.5625 -3.84375,2.46875 c -2.09832,1.36929 -6.5125,3.38293 -9.8125,4.46875 -3.3,1.08581 -10.5816,2.91107 -16.1875,4.0625 -5.6059,1.15143 -21.3559,3.67058 -35,5.59375 -13.6441,1.92318 -25.825,3.74397 -27.0625,4.03125 -2.2305,0.5178 -2.25,0.67452 -2.25,18.5 0,9.88952 0.25,18 0.25,18 0,0 -0.20577,-0.21551 1.3125,-0.9687 1.12558,-0.45602 9.22558,-1.82959 18,-3.03125 8.77443,-1.20167 22.6875,-3.26882 30.9375,-4.625 8.25,-1.35617 18.58877,-3.38202 22.96875,-4.5 9.86913,-1.9803 15.15194,-5.04197 17.6875,-7 2.3053,-1.73695 2.34896,-2.22825 2.65625,-19.40625 z m -1.375,42.78125 c 0.12088,0.18035 0.25082,0.3576 0.34375,0.53125 1.00577,1.87931 0.75236,2.52745 -1.875,4.875 -1.66275,1.48567 -5.57787,3.63735 -8.71875,4.8125 -3.14087,1.17516 -12.3514,3.48733 -20.46875,5.125 -8.11734,1.63768 -18.09082,3.207 -22.67699,3.81567 -4.58616,0.60867 -11.91861,1.74159 -21.04176,2.96558 -9.12315,1.224 -16.98854,2.48447 -17.46875,2.78125 -0.4802,0.29678 -0.875,8.34617 -0.875,17.90625 0,10.63764 0.4124,17.64878 1.03125,18.03125 0.0199,0.0123 0.11839,0.0167 0.15625,0.0312 0.0681,-0.13877 0.17959,-0.27826 0.375,-0.46875 0.5225,-0.50933 12.1875,-2.52296 25.9375,-4.46875 13.75,-1.94578 29.725,-4.49889 35.5,-5.65625 5.775,-1.15735 13.83155,-3.19959 17.90625,-4.5625 7.07605,-2.12886 7.97626,-2.73853 10.71875,-5.68745 2.33318,-2.77284 2.375,-3.3445 2.375,-20.84375 l 0,-17.96875 z m 0.8125,49.875 c -0.24256,0.51089 -0.76287,1.08432 -1.59375,1.96875 -1.26725,1.34892 -4.78811,3.39968 -7.8125,4.53125 -3.0244,1.13157 -9.13772,2.89849 -13.59375,3.9375 -4.45602,1.03901 -13.56615,2.80245 -20.21875,3.9375 -6.65259,1.13504 -12.92985,2.03114 -14.65243,2.22502 -1.72257,0.19389 -6.33507,1.0226 -11.97257,1.71248 -5.6375,0.68988 -13.2875,1.74448 -17,2.34375 l -6.75,1.09375 0,17.75 0,17.78125 3.25,-0.875 c 1.7875,-0.4768 12.025,-2.01817 22.75,-3.4375 10.725,-1.41933 25.52962,-3.70696 32.875,-5.09375 7.34539,-1.3868 16.96731,-3.66024 21.40625,-5.0625 5.14707,-1.62596 9.1053,-3.57405 10.90625,-5.375 l 2.8125,-2.84375 0,-18 c 0,-9.50738 -0.0202,-14.02167 -0.40625,-16.59375 z"
       id="path3035"
       inkscape:connector-curvature="0"
       sodipodi:nodetypes="ccsssssccssccccccssscssscccssccscccsssscscccccsssccsc" />
  </g>
</svg>
